<svg id="Capa_1" enable-background="new 0 0 512 512" height="512" viewBox="0 0 512 512" width="512" xmlns="http://www.w3.org/2000/svg"><g><g><path d="m103.067 408.237h355.47v72.56h-355.47z" fill="#b2e7f1"/><path d="m417.364 512h-340.776c-10.519 0-19.046-8.527-19.046-19.046s8.527-19.046 19.046-19.046h340.776c17.206 0 31.204-13.998 31.204-31.204 0-17.207-13.998-31.205-31.204-31.205h-340.776c-10.519 0-19.046-8.527-19.046-19.046s8.527-19.046 19.046-19.046h340.776c38.21 0 69.296 31.087 69.296 69.296 0 38.211-31.086 69.297-69.296 69.297z" fill="#ffa585"/><g><path d="m417.364 373.408h-61.514c31.677 0 57.449 22.543 57.449 50.251s-25.772 50.25-57.449 50.25h-279.263c-10.518 0-19.045 8.527-19.045 19.046s8.527 19.046 19.046 19.046h340.776c38.21 0 69.296-31.085 69.296-69.295 0-38.211-31.086-69.298-69.296-69.298z" fill="#a7adf1"/></g><path d="m486.66 442.705c0-38.21-31.086-69.296-69.296-69.296h-61.514c26.884 0 49.506 16.24 55.739 38.091h5.776c17.206 0 31.204 13.998 31.204 31.205 0 17.206-13.998 31.204-31.204 31.204h-340.777c-10.519 0-19.046 8.527-19.046 19.046 0 10.518 8.527 19.045 19.046 19.045h.002 340.773c38.211 0 69.297-31.086 69.297-69.295z" fill="#ef7c85"/><path d="m103.067 269.646h355.47v72.56h-355.47z" fill="#e7effa"/><path d="m417.364 373.408h-340.776c-10.519 0-19.046-8.527-19.046-19.046s8.527-19.046 19.046-19.046h340.776c17.206 0 31.204-13.998 31.204-31.204 0-17.207-13.998-31.205-31.204-31.205h-340.776c-10.519 0-19.046-8.527-19.046-19.046s8.527-19.046 19.046-19.046h340.776c38.21 0 69.296 31.087 69.296 69.296 0 38.212-31.086 69.297-69.296 69.297z" fill="#a183e2"/><g><path d="m417.364 234.817h-61.514c31.677 0 57.449 22.543 57.449 50.251s-25.772 50.249-57.449 50.249h-279.263c-10.518.001-19.045 8.527-19.045 19.046s8.527 19.046 19.046 19.046h340.776c38.21 0 69.296-31.085 69.296-69.295s-31.086-69.297-69.296-69.297z" fill="#dcb6f5"/></g><path d="m417.364 234.817h-61.514c26.884 0 49.506 16.24 55.739 38.091h5.776c17.206 0 31.204 13.999 31.204 31.205s-13.998 31.204-31.204 31.204h-340.777c-10.519 0-19.046 8.527-19.046 19.045 0 10.519 8.527 19.045 19.046 19.045h.002 340.774c38.21 0 69.296-31.086 69.296-69.295s-31.086-69.295-69.296-69.295z" fill="#9762e2"/><path d="m49.461 131.054h355.469v72.56h-355.469z" fill="#fef2a8"/><path d="m363.758 234.817h-340.776c-10.519 0-19.046-8.527-19.046-19.046s8.527-19.046 19.046-19.046h340.776c17.206 0 31.204-13.998 31.204-31.204 0-17.207-13.998-31.205-31.204-31.205h-340.776c-10.519 0-19.046-8.527-19.046-19.046s8.527-19.046 19.046-19.046h340.776c38.21 0 69.296 31.087 69.296 69.296 0 38.211-31.086 69.297-69.296 69.297z" fill="#ef8bbd"/><g><path d="m363.758 96.225h-61.515c31.677 0 57.449 22.543 57.449 50.251s-25.772 50.25-57.449 50.25h-279.262c-10.518.001-19.045 8.527-19.045 19.046s8.527 19.046 19.046 19.046h340.776c38.21 0 69.296-31.085 69.296-69.295 0-38.211-31.086-69.298-69.296-69.298z" fill="#eeb6a8"/></g><path d="m363.758 96.225h-61.514v.001c26.884 0 49.506 16.24 55.739 38.091h5.776c17.206 0 31.204 13.998 31.204 31.205 0 17.206-13.998 31.204-31.204 31.204h-340.777c-10.518 0-19.046 8.527-19.046 19.045 0 10.519 8.527 19.046 19.046 19.046h.003 340.773c38.21 0 69.296-31.085 69.296-69.295s-31.086-69.297-69.296-69.297z" fill="#e068bd"/><g><path d="m206.351 171.653h-152.264c-3.386 0-6.132-2.745-6.132-6.132 0-3.386 2.745-6.132 6.132-6.132h152.264c3.386 0 6.132 2.745 6.132 6.132-.001 3.386-2.746 6.132-6.132 6.132z" fill="#d08372"/></g><g><path d="m442.112 310.244h-100.355c-3.386 0-6.132-2.745-6.132-6.132s2.745-6.132 6.132-6.132h100.355c3.386 0 6.132 2.745 6.132 6.132s-2.745 6.132-6.132 6.132z" fill="#ad99c9"/></g><g><path d="m299.689 310.244h-81.194c-3.386 0-6.132-2.746-6.132-6.132s2.746-6.132 6.132-6.132h81.194c3.386 0 6.132 2.746 6.132 6.132 0 3.387-2.746 6.132-6.132 6.132z" fill="#ad99c9"/></g><g><path d="m183.447 448.836h-80.38c-3.386 0-6.132-2.746-6.132-6.132s2.745-6.132 6.132-6.132h80.38c3.386 0 6.132 2.745 6.132 6.132-.001 3.387-2.746 6.132-6.132 6.132z" fill="#95cde6"/></g><g><path d="m391.935 448.836h-164.739c-3.386 0-6.132-2.746-6.132-6.132s2.746-6.132 6.132-6.132h164.739c3.386 0 6.132 2.745 6.132 6.132s-2.746 6.132-6.132 6.132z" fill="#95cde6"/></g></g><g><ellipse cx="494.687" cy="159.307" fill="#a183e2" rx="8.027" ry="8.027" transform="matrix(.14 -.99 .99 .14 267.87 626.905)"/><path d="m407.989 18.973c0 4.433-3.594 8.027-8.027 8.027s-8.027-3.594-8.027-8.027 3.594-8.027 8.027-8.027 8.027 3.594 8.027 8.027z" fill="#a183e2"/><g fill="#cab4ef"><path d="m320.266 1.918 6.439 18.106c.276.775.821 1.389 1.51 1.7l16.086 7.247c2.273 1.024 2.273 4.645 0 5.669l-16.086 7.247c-.689.31-1.235.924-1.51 1.7l-6.439 18.106c-.91 2.558-4.127 2.558-5.036 0l-6.439-18.106c-.276-.775-.821-1.389-1.51-1.7l-16.086-7.247c-2.273-1.024-2.273-4.645 0-5.669l16.086-7.247c.689-.31 1.234-.925 1.51-1.7l6.439-18.106c.91-2.558 4.127-2.558 5.036 0z"/><path d="m472.695 29.586 8.848 24.408c.379 1.045 1.129 1.873 2.075 2.292l22.104 9.77c3.123 1.38 3.123 6.262 0 7.642l-22.104 9.77c-.946.418-1.696 1.246-2.075 2.291l-8.848 24.408c-1.25 3.448-5.671 3.448-6.921 0l-8.848-24.408c-.379-1.045-1.129-1.873-2.075-2.291l-22.104-9.77c-3.123-1.38-3.123-6.262 0-7.642l22.104-9.77c.947-.418 1.696-1.246 2.075-2.292l8.848-24.408c1.25-3.448 5.671-3.448 6.921 0z"/></g></g></g></svg>