<svg height="512pt" viewBox="0 -48 512 512" width="512pt" xmlns="http://www.w3.org/2000/svg"><path d="m32 0h448v96h-448zm0 0" fill="#168de2"/><path d="m0 64h512v352h-512zm0 0" fill="#40a2e7"/><path d="m256 352v64h-192v-64c0-24.640625 9.28125-47.039062 24.640625-64 17.4375-19.679688 43.039063-32 71.359375-32s53.921875 12.320312 71.359375 32c15.359375 16.960938 24.640625 39.359375 24.640625 64zm0 0" fill="#f9ddaa"/><path d="m288 192h160v32h-160zm0 0" fill="#fff"/><path d="m448 288h-32v-32h32zm-64 0h-96v-32h96zm0 0" fill="#fff"/><path d="m231.359375 288c0 17.601562-32 32-71.359375 32s-71.359375-14.398438-71.359375-32c17.4375-19.679688 43.039063-32 71.359375-32s53.921875 12.320312 71.359375 32zm0 0" fill="#f7ce8a"/><path d="m224 224c0 35.347656-28.652344 64-64 64s-64-28.652344-64-64 28.652344-64 64-64 64 28.652344 64 64zm0 0" fill="#f9ddaa"/><g fill="#fff"><path d="m32 96h32v32h-32zm0 0"/><path d="m96 96h32v32h-32zm0 0"/><path d="m32 160h32v32h-32zm0 0"/></g></svg>